<?xml version="1.0" encoding="utf-8"?>
<!-- Generator: Adobe Illustrator 23.0.0, SVG Export Plug-In . SVG Version: 6.00 Build 0)  -->
<svg version="1.1" xmlns="http://www.w3.org/2000/svg" xmlns:xlink="http://www.w3.org/1999/xlink" x="0px" y="0px"
	 viewBox="0 0 1899.21 954.66" style="enable-background:new 0 0 1899.21 954.66;" xml:space="preserve">
<style type="text/css">
	.st0{fill:#3F51B5;stroke:#425192;stroke-miterlimit:10;}
</style>
<g id="레이어_2">
	<g>
		<g>
			<path class="st0" d="M536.99,540.09c-4.62-0.37-16.94-1.34-19.13-10.71c-0.09-0.37-0.15-0.73-0.21-1.1
				c-9.54,10.89-12.98,21.39-10.51,31.96c1.51,6.45,5.09,10.92,11.28,14.07c6.57,3.34,13.85,4.01,22.26,2.05
				c5.86-1.37,10.28-4.23,13.49-8.76c3.04-4.27,3.92-8.53,2.77-13.42C555.55,548.25,552.03,541.3,536.99,540.09z"/>
			<path class="st0" d="M662.72,556.63c-4.87-12-9.75-23.78-14.63-35.34c-38.44-91.58-59.53-142.55-64.45-155.82
				c-1.26-3.31-2.28-5.79-3.1-7.64c-0.4,1.01-0.85,2.19-1.34,3.6c-4,10.71-7.03,18.35-9.19,23.15l-9.76,24.51l6.64,16.09
				c2.08,5.55,3.7,9.77,4.82,12.57c4.45,10.55,11.45,28.4,21.36,54.47c1.5,3.68,2.37,5.87,2.61,6.56l2.52,7.02h-0.08l0.1,0.28
				c4.97,13.39,8.12,22.35,9.54,27.13l7.68,21.71c4.69,13.22,4.69,14.64,4.69,15.79c0,1.33-0.31,3.67-2.18,5.68
				c5.54-0.16,11.75-0.24,18.52-0.24c6.81,0,19.06,0.22,37.45,0.67c0.61,0.01,1.21,0.03,1.79,0.04
				C671.08,573.48,666.91,566.97,662.72,556.63z"/>
		</g>
		<g>
			<path class="st0" d="M921.49,545.1c0-10.51,3.03-22.89,14.63-31.77c-31.67,7.08-47.68,20.64-47.68,40.46
				c0,8.13,2.62,14.52,8.02,19.54c5.5,5.12,12.66,7.61,21.85,7.61c9.33,0,17.49-2.39,24.62-7.24
				C934.35,573.29,921.49,568.72,921.49,545.1z"/>
			<path class="st0" d="M1002.77,559.17c-0.19-1.41-0.41-4.96-0.41-20.09v-57.12c0-15.46-3.45-26.26-10.16-32.02
				c-7.25-5.97-19.53-9.57-36.59-10.74c4.74,3.97,7.36,9.11,8.83,13.92l0.31,1.42c1.2,3.81,2.74,12.55,2.74,42.45v27.72
				c-0.94,21.52,1.04,33.31,1.04,33.31c1.27,8.58,3.68,14.44,7.17,17.4c3.52,2.99,9.7,4.5,18.37,4.5c7.18,0,13.68-1,19.61-3.03
				C1009.18,575.27,1004.27,570.75,1002.77,559.17z"/>
			<path class="st0" d="M909.54,486.75c4.29,0,7.62-1.14,10.18-3.47c2.45-2.24,3.6-4.88,3.6-8.31c0-6.44-2.26-9-8.32-9.46
				c-9.05-0.68-13.63-3.79-13.63-9.24c0-1.77,0.31-3.54,0.93-5.29c-7.84,6.35-11.66,13.02-11.66,20.32c0,4.52,1.57,7.98,4.95,10.89
				C899.15,485.25,903.71,486.75,909.54,486.75z"/>
		</g>
		<path class="st0" d="M842.1,576.6c-5.98-0.23-11.81-0.34-17.34-0.34c-4.08,0-10.76,0.13-20.29,0.39
			c1.08-2.68,1.93-7.95,1.93-21.15V379.74c0-9.43-1.2-14.49-4.14-17.23c16.22-1.47,30.51-4.17,42.67-8.07v192.99
			c0,20.78,0.78,25.92,1.55,28.22c0.12,0.37,0.27,0.75,0.45,1.13C845.44,576.72,843.82,576.66,842.1,576.6z"/>
		<path class="st0" d="M747.77,576.6c-5.98-0.23-11.81-0.34-17.34-0.34c-4.08,0-10.76,0.13-20.29,0.39
			c1.08-2.68,1.93-7.95,1.93-21.15V379.74c0-9.43-1.2-14.49-4.14-17.23c16.22-1.47,30.51-4.17,42.67-8.07v192.99
			c0,20.78,0.78,25.92,1.55,28.22c0.12,0.37,0.27,0.75,0.45,1.13C751.11,576.72,749.49,576.66,747.77,576.6z"/>
		<g>
			<path class="st0" d="M1169.53,542.79c-5.37-3.92-15.66-6.29-21.46,0.83c-5.03,6.18-0.94,11.84,2.14,14.45
				c6.92,5.87,8,11.67,4.5,15.84c-1.14,1.36-2.51,2.51-4.11,3.45C1181.44,580.74,1181.29,551.37,1169.53,542.79z"/>
			<path class="st0" d="M1070.39,477.04c5.37,3.92,15.66,6.29,21.46-0.83c5.03-6.18,0.94-11.84-2.13-14.45
				c-6.92-5.87-8-11.67-4.5-15.84c1.14-1.36,2.51-2.51,4.11-3.45C1058.48,439.08,1058.64,468.45,1070.39,477.04z"/>
			<path class="st0" d="M1174.01,441.91c-5.6,0.42-14,0.62-25.44,0.62c-3.78,0-7.89-0.02-12.3-0.07l-1.33-0.01l-9.46,16.33
				c-12.35,19.53-22.74,35.84-31.05,48.8c-18.2,30.42-32.24,53.85-42.11,70.25c0.54-0.06,1.14-0.13,1.78-0.2
				c4.05-0.47,7.81-0.7,11.21-0.7h26.39l63.96-104.02C1166.14,455.86,1171.39,446.76,1174.01,441.91z"/>
		</g>
	</g>
</g>
<g id="레이어_3">
</g>
</svg>
