<?xml version="1.0" encoding="utf-8"?>
<!-- Generator: Adobe Illustrator 23.0.0, SVG Export Plug-In . SVG Version: 6.00 Build 0)  -->
<svg version="1.1" id="레이어_2" xmlns="http://www.w3.org/2000/svg" xmlns:xlink="http://www.w3.org/1999/xlink" x="0px"
	 y="0px" viewBox="0 0 960 600" style="enable-background:new 0 0 960 600;" xml:space="preserve">
<style type="text/css">
	.st0{fill:#3F51B5;}
</style>
<g>
	<path class="st0" d="M782.38,239.1c0.67-1.41,2.67-1.41,3.34,0l20.17,42.5l20.59,43.38c0.58,1.23-0.31,2.64-1.67,2.64h-5.27h-7.02
		c-0.71,0-1.37-0.41-1.67-1.06l-17.25-36.33l-17.37-36.6c-0.24-0.5-0.24-1.08,0-1.59l3.72-7.84L782.38,239.1z M764.39,197.36
		c-0.46,0-0.91,0.13-1.28,0.37c-0.38,0.24-0.69,0.58-0.89,1l-30.59,64.45l-29.34,61.8c-0.58,1.23,0.31,2.64,1.67,2.64h5.27h7.02
		c0.71,0,1.37-0.41,1.67-1.06L745,269.52l27.2-57.31c0.24-0.5,0.24-1.08,0-1.59l-2.64-5.55l-3.01-6.34c-0.2-0.42-0.51-0.76-0.89-1
		C765.29,197.49,764.85,197.36,764.39,197.36z"/>
	<path class="st0" d="M501.72,262.49c0,16.67-6.1,31.93-16.18,43.69c-9.61,11.21-22.85,19.24-37.88,22.26
		c-1.14,0.23-2.19-0.67-2.19-1.83v-5.28v-6.05c0-0.86,0.59-1.58,1.42-1.79c11.24-2.76,21.06-9.14,28.17-17.82
		c7.4-9.05,11.85-20.61,11.85-33.19c0-12.58-4.45-24.14-11.85-33.19c-7.11-8.69-16.93-15.06-28.17-17.82
		c-0.83-0.2-1.42-0.93-1.42-1.79v-6.05v-5.28c0-1.16,1.06-2.05,2.19-1.83c15.03,3.03,28.26,11.05,37.88,22.26
		C495.62,230.56,501.72,245.81,501.72,262.49z M367.02,262.49c0,16.67,6.1,31.93,16.18,43.69c9.61,11.21,22.85,19.24,37.88,22.26
		c1.14,0.23,2.19-0.67,2.19-1.83v-5.28v-6.05c0-0.86-0.59-1.58-1.42-1.79c-11.24-2.76-21.07-9.14-28.17-17.82
		c-7.4-9.05-11.85-20.61-11.85-33.19c0-12.58,4.45-24.14,11.85-33.19c7.11-8.69,16.94-15.06,28.17-17.82
		c0.83-0.2,1.42-0.93,1.42-1.79v-6.05v-5.28c0-1.16-1.06-2.05-2.19-1.83c-15.03,3.02-28.27,11.05-37.88,22.26
		C373.11,230.55,367.02,245.81,367.02,262.49z"/>
	<path class="st0" d="M657.7,325.77c0,1.02,0.83,1.85,1.85,1.85h5.55h5.55c1.02,0,1.85-0.83,1.85-1.85v-63.28v-63.28
		c0-1.02-0.83-1.85-1.85-1.85h-5.55h-5.55c-1.02,0-1.85,0.83-1.85,1.85v63.28V325.77z"/>
	<path class="st0" d="M585.17,197.36h-24.42h-22.57c-1.02,0-1.85,0.83-1.85,1.85v22.57v22.57c0,1.02,0.83,1.85,1.85,1.85h5.55h5.55
		c1.02,0,1.85-0.83,1.85-1.85v-15.17v-15.17c0-1.02,0.83-1.85,1.85-1.85h15.17h17.02c7.75,0,14.78,3.15,19.88,8.25
		c5.09,5.09,8.25,12.12,8.25,19.88c0,7.75-3.15,14.79-8.25,19.88c-5.09,5.09-12.12,8.25-19.88,8.25h-10.18h-10.18h-14.25h-12.4
		c-1.02,0-1.85,0.83-1.85,1.85v27.75v27.75c0,1.02,0.83,1.85,1.85,1.85h5.55h5.55c1.02,0,1.85-0.83,1.85-1.85v-20.35v-20.35
		c0-1.02,0.83-1.85,1.85-1.85h15.17h17.02c11.83,0,22.57-4.81,30.34-12.59c7.77-7.77,12.59-18.5,12.59-30.34
		c0-11.83-4.81-22.57-12.59-30.34C607.74,202.17,597.01,197.36,585.17,197.36z"/>
	<path class="st0" d="M162.79,312.91c0.74,0.26,1.25,0.95,1.25,1.74v6.32v5.28c0,1.23-1.18,2.1-2.36,1.78
		c-10.64-2.87-19.93-9.04-26.71-17.34c-7.27-8.91-11.64-20.28-11.64-32.66v-40.34v-38.49c0-1.02,0.83-1.85,1.85-1.85h5.55h5.55
		c1.02,0,1.85,0.83,1.85,1.85v38.49v40.34c0,8.27,2.73,15.91,7.33,22.08C149.81,305.93,155.82,310.44,162.79,312.91z M212.15,278.03
		c0,8.27-2.73,15.91-7.33,22.08c-4.34,5.82-10.36,10.33-17.32,12.8c-0.74,0.26-1.25,0.95-1.25,1.74v6.32v5.28
		c0,1.23,1.18,2.1,2.36,1.78c10.64-2.87,19.93-9.04,26.71-17.34c7.27-8.91,11.64-20.28,11.64-32.66v-40.34v-38.49
		c0-1.02-0.83-1.85-1.85-1.85h-5.55H214c-1.02,0-1.85,0.83-1.85,1.85v38.49V278.03z"/>
	<path class="st0" d="M292.08,234.73c0-1.02,0.83-1.85,1.85-1.85h5.55h5.55c1.02,0,1.85,0.83,1.85,1.85v45.52v45.52
		c0,1.02-0.83,1.85-1.85,1.85h-5.55h-5.55c-1.02,0-1.85-0.83-1.85-1.85v-45.52V234.73z M340.56,212.16c1.02,0,1.85-0.83,1.85-1.85
		v-5.55v-5.55c0-1.02-0.83-1.85-1.85-1.85h-41.08h-41.08c-1.02,0-1.85,0.83-1.85,1.85v5.55v5.55c0,1.02,0.83,1.85,1.85,1.85h41.08
		H340.56z"/>
</g>
</svg>
